<?xml version="1.0" encoding="utf-8"?>
<!-- Generator: Adobe Illustrator 24.0.0, SVG Export Plug-In . SVG Version: 6.00 Build 0)  -->
<svg version="1.1" id="Capa_1" xmlns="http://www.w3.org/2000/svg" xmlns:xlink="http://www.w3.org/1999/xlink" x="0px" y="0px"
	 viewBox="0 0 448 512" style="enable-background:new 0 0 448 512;" xml:space="preserve">
<style type="text/css">
	.st0{fill:#598D39;}
</style>
<path class="st0" d="M254,52.8C249.3,40.3,237.3,32,224,32s-25.3,8.3-30,20.8L57.8,416H32c-17.7,0-32,14.3-32,32s14.3,32,32,32h96
	c17.7,0,32-14.3,32-32s-14.3-32-32-32h-1.8l18-48h159.6l18,48H320c-17.7,0-32,14.3-32,32s14.3,32,32,32h96c17.7,0,32-14.3,32-32
	s-14.3-32-32-32h-25.8L254,52.8z M279.8,304H168.2L224,155.1L279.8,304z"/>
</svg>
