<svg id="Capa_1" data-name="Capa 1" xmlns="http://www.w3.org/2000/svg" viewBox="0 0 62.737 50"><defs><style>.cls-1{fill:#282642;opacity:0.3;}</style></defs><title>bootstrap</title><path class="cls-1" d="M293.079,249.86c0-2.467-1.741-3.828-4.8-3.828h-5.626v7.948H287.4C291.059,253.969,293.079,252.5,293.079,249.86Zm20.485-1.428a35,35,0,0,1-1.094-10.952,6.245,6.245,0,0,0-6.107-6.53h-36.7a6.244,6.244,0,0,0-6.106,6.53,35.394,35.394,0,0,1-1.094,10.952c-1.072,3.46-2.869,5.648-5.828,5.927v3.182c2.947.279,4.756,2.467,5.828,5.927a35.064,35.064,0,0,1,1.094,10.952,6.245,6.245,0,0,0,6.106,6.53h36.693a6.245,6.245,0,0,0,6.107-6.53,35.334,35.334,0,0,1,1.094-10.952c1.071-3.46,2.869-5.648,5.816-5.927v-3.182C316.433,254.08,314.624,251.892,313.564,248.432Zm-24.2,20.819H278.433v-26.6h10.873c4.834,0,8,2.612,8,6.631a5.927,5.927,0,0,1-4.856,5.783v.145c3.706.4,6.2,2.969,6.2,6.508C298.65,266.416,295.156,269.251,289.362,269.251Zm-1.116-12.134h-5.593v8.752h5.838c3.818,0,5.839-1.53,5.839-4.41S292.253,257.117,288.246,257.117Z" transform="translate(-256.631 -230.95)"/></svg>