<svg xmlns="http://www.w3.org/2000/svg" viewBox="0 0 50 50"><defs><style>.cls-1{fill:#282642;opacity:0.3;}</style></defs><title>git</title><g id="Capa_2" data-name="Capa 2"><g id="Capa_1-2" data-name="Capa 1"><path class="cls-1" d="M11.227,33.732c5.42.37,6.579.236,6.579,1.333,0,2.232-7.316,2.239-7.316.169A2.513,2.513,0,0,1,11.227,33.732Zm3.119-13.018c-3.6,0-3.767,4.963-.084,4.963a2.488,2.488,0,1,0,.084-4.963ZM50,5.357V44.643A5.356,5.356,0,0,1,44.643,50H5.357A5.356,5.356,0,0,1,0,44.643V5.357A5.356,5.356,0,0,1,5.357,0H44.643A5.356,5.356,0,0,1,50,5.357ZM24.665,13.093a2.328,2.328,0,0,0,2.552,2.553A2.337,2.337,0,0,0,29.8,13.093a2.289,2.289,0,0,0-2.579-2.49A2.285,2.285,0,0,0,24.665,13.093Zm-2.435,5.1H16.7c-2.79-.731-9.1-.541-9.1,5.218a4.529,4.529,0,0,0,2.439,4.253c-1.751,1.6-2.581,2.359-2.581,3.431A1.889,1.889,0,0,0,8.7,32.964a3.671,3.671,0,0,0-1.562,2.893c0,2.24,1.958,3.54,7.091,3.54,4.935,0,7.8-1.842,7.8-5.1,0-4.093-3.151-3.942-10.577-4.4l.935-1.5c1.9.529,8.281.7,8.281-4.736a4.5,4.5,0,0,0-1.05-2.865l2.61-.2Zm9.413,12.259-1.451-.2c-.426-.057-.454-.111-.454-.568V17.915H23.867l-.311,2.3c1.758.619,1.9.542,1.9,1.135v8.342c0,.627-.034.511-1.9.766v2.239h8.082Zm11.214,1.134-.767-2.5c-4.568,1.716-4.224-1.385-4.224-1.867V20.444H42.09V17.608h-4c-.321,0-.224.282-.224-4.311h-2.7c-.312,3.091-1.3,4.339-3.795,4.623v2.524c2.285,0,2.212-.095,2.212.284v7.429c0,3.206,1.276,4.566,4.651,4.566a11.272,11.272,0,0,0,4.618-1.138Z"/></g></g></svg>