<svg xmlns="http://www.w3.org/2000/svg" viewBox="0 0 51.281 50"><defs><style>.cls-1{fill:#282642;opacity:0.3;}</style></defs><title>github</title><g id="Capa_2" data-name="Capa 2"><g id="Capa_1-2" data-name="Capa 1"><path class="cls-1" d="M17.152,40.26c0,.207-.237.372-.537.372-.341.031-.579-.134-.579-.372,0-.207.238-.372.537-.372C16.884,39.857,17.152,40.022,17.152,40.26ZM13.937,39.8c-.072.206.134.444.444.506a.486.486,0,0,0,.642-.206c.062-.207-.135-.445-.445-.538a.531.531,0,0,0-.641.238Zm4.57-.176c-.3.072-.507.269-.476.507.031.206.3.341.61.268s.507-.268.476-.475S18.807,39.588,18.507,39.619ZM25.31,0C10.97,0,0,10.887,0,25.227A25.921,25.921,0,0,0,17.525,49.958c1.323.238,1.788-.579,1.788-1.251,0-.641-.031-4.177-.031-6.348,0,0-7.237,1.551-8.757-3.081,0,0-1.179-3.009-2.874-3.784,0,0-2.368-1.624.165-1.593a5.457,5.457,0,0,1,3.991,2.668c2.264,3.991,6.059,2.843,7.537,2.161A5.748,5.748,0,0,1,21,35.246c-5.779-.641-11.61-1.479-11.61-11.425a7.838,7.838,0,0,1,2.44-6.09,9.764,9.764,0,0,1,.269-7.02c2.16-.672,7.133,2.792,7.133,2.792a24.421,24.421,0,0,1,12.986,0s4.973-3.474,7.134-2.792a9.759,9.759,0,0,1,.269,7.02c1.654,1.83,2.667,3.257,2.667,6.09,0,9.977-6.089,10.773-11.869,11.425a6.112,6.112,0,0,1,1.758,4.8c0,3.484-.031,7.8-.031,8.643,0,.672.475,1.489,1.788,1.251a25.681,25.681,0,0,0,17.349-24.71C51.281,10.887,39.65,0,25.31,0ZM10.049,35.659c-.134.1-.1.341.073.538.165.165.4.238.537.1.135-.1.1-.341-.072-.538C10.422,35.6,10.184,35.525,10.049,35.659Zm-1.116-.837c-.073.134.031.3.238.4a.307.307,0,0,0,.444-.073c.073-.134-.031-.3-.238-.4C9.171,34.687,9.005,34.718,8.933,34.822Zm3.35,3.68c-.166.135-.1.445.134.641.238.238.538.269.672.1.135-.135.073-.445-.134-.641C12.727,38.368,12.417,38.337,12.283,38.5ZM11.1,36.982c-.165.1-.165.373,0,.61s.445.342.579.238a.472.472,0,0,0,0-.641c-.145-.238-.414-.341-.579-.207Z"/></g></g></svg>