<svg id="Capa_1" data-name="Capa 1" xmlns="http://www.w3.org/2000/svg" viewBox="0 0 50 50"><defs><style>.cls-1{fill:#282642;opacity:0.3;}</style></defs><title>javascript</title><path class="cls-1" d="M243.643,231H204.357A5.359,5.359,0,0,0,199,236.357v39.286A5.359,5.359,0,0,0,204.357,281h39.286A5.359,5.359,0,0,0,249,275.643V236.357A5.359,5.359,0,0,0,243.643,231ZM226.21,270c0,4.866-2.857,7.087-7.02,7.087a7.3,7.3,0,0,1-7.054-4.3l3.828-2.311c.737,1.306,1.407,2.411,3.025,2.411,1.54,0,2.522-.6,2.522-2.957V253.958h4.7V270Zm11.116,7.087c-4.364,0-7.188-2.076-8.56-4.8l3.828-2.209a5.127,5.127,0,0,0,4.631,2.857c1.942,0,3.192-.971,3.192-2.322,0-1.607-1.272-2.176-3.426-3.125l-1.172-.5c-3.393-1.44-5.636-3.259-5.636-7.087,0-3.527,2.69-6.2,6.875-6.2a6.92,6.92,0,0,1,6.674,3.761l-3.661,2.344a3.2,3.2,0,0,0-3.024-2.009A2.039,2.039,0,0,0,234.8,259.8c0,1.406.87,1.975,2.89,2.857l1.172.5c4,1.708,6.239,3.46,6.239,7.388,0,4.219-3.326,6.541-7.779,6.541Z" transform="translate(-199 -231)"/></svg>