<?xml version="1.0" encoding="utf-8"?>
<!-- Generator: Adobe Illustrator 24.0.0, SVG Export Plug-In . SVG Version: 6.00 Build 0)  -->
<svg version="1.1" id="Capa_1" xmlns="http://www.w3.org/2000/svg" xmlns:xlink="http://www.w3.org/1999/xlink" x="0px" y="0px"
	 viewBox="0 0 640 512" style="enable-background:new 0 0 640 512;" xml:space="preserve">
<style type="text/css">
	.st0{opacity:0.3;fill:#282642;}
</style>
<path class="st0" d="M320,104.5c171.4,0,303.2,72.2,303.2,151.5S491.3,407.5,320,407.5c-171.4,0-303.2-72.2-303.2-151.5
	S148.7,104.5,320,104.5 M320,87.7C143.3,87.7,0,163,0,256s143.3,168.3,320,168.3S640,349,640,256S496.7,87.7,320,87.7z M218.2,242.5
	c-7.9,40.5-35.8,36.3-70.1,36.3l13.7-70.6C199.8,208.2,225.6,204.1,218.2,242.5L218.2,242.5z M97.4,350.3h36.7l8.7-44.8
	c41.1,0,66.6,3,90.2-19.1c26.1-24,32.9-66.7,14.3-88.1c-9.7-11.2-25.3-16.7-46.5-16.7h-70.7L97.4,350.3z M283.1,136.7h36.5
	l-8.7,44.8c31.5,0,60.7-2.3,74.8,10.7c14.8,13.6,7.7,31-8.3,113.1h-37c15.4-79.4,18.3-86,12.7-92c-5.4-5.8-17.7-4.6-47.4-4.6
	l-18.8,96.6h-36.5L283.1,136.7L283.1,136.7z M505,242.5c-8,41.1-36.7,36.3-70.1,36.3l13.7-70.6C486.8,208.2,512.4,204.1,505,242.5
	L505,242.5z M384.2,350.3H421l8.7-44.8c43.2,0,67.1,2.5,90.2-19.1c26.1-24,32.9-66.7,14.3-88.1c-9.7-11.2-25.3-16.7-46.5-16.7H417
	L384.2,350.3z"/>
</svg>
