<?xml version="1.0" encoding="utf-8"?>
<!-- Generator: Adobe Illustrator 24.0.0, SVG Export Plug-In . SVG Version: 6.00 Build 0)  -->
<svg version="1.1" id="Capa_1" xmlns="http://www.w3.org/2000/svg" xmlns:xlink="http://www.w3.org/1999/xlink" x="0px" y="0px"
	 viewBox="0 0 448 512" style="enable-background:new 0 0 448 512;" xml:space="preserve">
<style type="text/css">
	.st0{opacity:0.3;fill:#282642;}
</style>
<path class="st0" d="M392.3,32H56.1C25.1,32,0,57.1,0,88c-0.1,0,0-4,0,336c0,30.9,25.1,56,56,56h336.2c30.8-0.2,55.7-25.2,55.7-56
	V88C448,57.2,423.1,32.2,392.3,32L392.3,32z M197,371.3c-0.2,14.7-12.1,26.6-26.9,26.6H87.4c-14.8,0.1-26.9-11.8-27-26.6V117.1
	c0-14.8,12-26.9,26.9-26.9h82.9c14.8,0,26.9,12,26.9,26.9v254.2H197z M390.1,259.3c0,14.8-12,26.9-26.9,26.9h-81
	c-14.8,0-26.9-12-26.9-26.9V117.2c0-14.8,12-26.9,26.8-26.9h81.1c14.8,0,26.9,12,26.9,26.9V259.3z"/>
</svg>
