<?xml version="1.0" encoding="utf-8"?>
<!-- Generator: Adobe Illustrator 24.0.0, SVG Export Plug-In . SVG Version: 6.00 Build 0)  -->
<svg version="1.1" id="Capa_1" xmlns="http://www.w3.org/2000/svg" xmlns:xlink="http://www.w3.org/1999/xlink" x="0px" y="0px"
	 viewBox="0 0 512 512" style="enable-background:new 0 0 512 512;" xml:space="preserve">
<style type="text/css">
	.st0{opacity:0.3;fill:#282642;}
</style>
<path class="st0" d="M61.7,169.4l101.5,278C92.2,413,43.3,340.2,43.3,256C43.3,225.1,49.9,195.9,61.7,169.4z M399.6,245.3
	c0-26.3-9.4-44.5-17.5-58.7c-10.8-17.5-20.9-32.4-20.9-49.9c0-19.6,14.8-37.8,35.7-37.8c0.9,0,1.8,0.1,2.8,0.2
	C361.8,64.4,311.4,43.2,256,43.2c-74.3,0-139.7,38.1-177.8,95.9c5,0.2,9.7,0.3,13.7,0.3c22.2,0,56.7-2.7,56.7-2.7
	c11.5-0.7,12.8,16.2,1.4,17.5c0,0-11.5,1.3-24.3,2l77.5,230.4L249.8,247l-33.1-90.8c-11.5-0.7-22.3-2-22.3-2
	c-11.5-0.7-10.1-18.2,1.3-17.5c0,0,35.1,2.7,56,2.7c22.2,0,56.7-2.7,56.7-2.7c11.5-0.7,12.8,16.2,1.4,17.5c0,0-11.5,1.3-24.3,2
	l76.9,228.7l21.2-70.9C392.6,284.6,399.6,263.5,399.6,245.3L399.6,245.3z M259.7,274.6l-63.8,185.5c19.1,5.6,39.2,8.7,60.1,8.7
	c24.8,0,48.5-4.3,70.6-12.1c-0.6-0.9-1.1-1.9-1.5-2.9L259.7,274.6z M442.7,153.9c0.9,6.8,1.4,14,1.4,21.9c0,21.6-4,45.8-16.2,76.2
	l-65,187.9C426.2,403,468.7,334.5,468.7,256C468.7,219,459.3,184.2,442.7,153.9L442.7,153.9z M504,256c0,136.8-111.3,248-248,248
	C119.2,504,8,392.7,8,256C8,119.2,119.2,8,256,8C392.7,8,504,119.2,504,256z M492.6,256c0-130.5-106.2-236.6-236.6-236.6
	C125.5,19.4,19.4,125.5,19.4,256S125.6,492.6,256,492.6C386.5,492.6,492.6,386.5,492.6,256z"/>
</svg>
